<?xml version="1.0" encoding="utf-8"?>
<!-- Generator: Adobe Illustrator 26.0.1, SVG Export Plug-In . SVG Version: 6.00 Build 0)  -->
<svg version="1.1" id="Laag_1" xmlns="http://www.w3.org/2000/svg" xmlns:xlink="http://www.w3.org/1999/xlink" x="0px" y="0px"
	 viewBox="0 0 905.9 796.2" style="enable-background:new 0 0 905.9 796.2;" xml:space="preserve">
<style type="text/css">
	.st0{fill:#DADADA;}
</style>
<path class="st0" d="M0,324.5V153.2c0-0.7,0.1-1.4,0.4-2c9.7-21.7,29.1-18.5,47.7-18.5c2.7,0,5-2.3,5-5c0-14.8,0-29,0-43.3
	C53.2,33.8,86.9,0,137.3,0c228.2,0,456.4,0,684.6,0c50,0,84,33.8,84,83.7c0.1,209.6,0.1,419.2,0,628.9c0,49.8-34,83.7-84,83.7
	c-228.2,0-456.4,0-684.6,0c-50.4,0-84.2-33.8-84.2-84.3c0-14.3,0-28.5,0-43.3c0-2.7-2.2-5-5-5c-18.6,0-38,3.2-47.7-18.5
	c-0.3-0.6-0.4-1.3-0.4-2V471.7c0-0.7,0.1-1.4,0.4-2c9.7-21.9,29.5-18.4,47.3-18.6c2.7,0,4.9-2.3,4.9-5v-96c0-2.8-2.2-5-5-5
	c-18.2,0-37.5,3.1-47.2-18.5C0.1,325.9,0,325.2,0,324.5z M53.5,605.4c0,2.8,2.2,5,5,5c6.5,0,12.6,0,18.6,0c18.2,0.1,29,10.9,29,29.3
	c0.1,24.5,0,48.9,0,73.4c0,19.4,10.6,30,30.2,30c228.8,0,457.6,0,686.4,0c19.4,0,30-10.6,30-30.1c0-209.9,0-419.9,0-629.8
	c0-19.5-10.6-30.1-30-30.1c-228.8,0-457.6,0-686.5,0c-19.6,0-30.1,10.5-30.2,29.9c0,24.5,0,48.9,0,73.4c-0.1,18.4-10.8,29.2-29,29.3
	c-6.1,0.1-12.3,0-18.3,0c-2.8,0-5,2.2-5,5V287c0,2.8,2.2,5,5,5c6.8,0,13.1-0.1,19.5,0c16.6,0.3,27.8,11.2,27.8,27.8
	c0.1,52.2,0.1,104.4,0,156.6c0,16.6-11.2,27.6-27.8,27.9c-6.6,0.1-13.1,0.1-19.8,0c-2.8,0-5,2.2-5,5l0,0L53.5,605.4z"/>
<path class="st0" d="M592,327.5c26.3,45.9,26.7,95,0.5,140.7c-1.1,1.9-0.8,4.3,0.7,5.9c1.2,1.3,2.5,2.7,3.8,4
	c36.9,36.9,73.8,73.8,110.7,110.6c7.5,7.5,12.3,16,10.1,26.8c-2.1,9.9-8,16.9-17.9,20.1c-10.7,3.5-19.8,0.5-27.5-7
	c-14.5-14.2-28.8-28.7-43.2-43.1c-23.1-23.1-46.3-46.3-69.4-69.5c-1.2-1.2-2.3-2.6-3.2-4c-1.5-2.1-4.4-2.7-6.6-1.4
	c-23.3,13.8-47.1,20.7-73,20.2c-22.8-0.5-44.3-6.3-63.8-18.1c-5.5-3.3-8.3-2.5-12.5,1.7c-37.3,37.7-74.8,75.2-112.5,112.7
	c-7.8,7.8-16.7,12-27.9,8.8c-19.7-5.6-26-28.3-12.1-43.7c5.9-6.6,12.4-12.6,18.7-18.8l99-99c1.6-1.6,1.9-4,0.8-6
	c-26.2-46.3-26.7-92.7,0.5-141.1c1.3-2.3,0.5-5.3-1.8-6.7c-1.3-0.7-2.5-1.6-3.5-2.6c-37-36.8-73.9-73.7-110.8-110.6
	c-7.6-7.6-12.1-16.1-9.8-26.9c4.4-20.5,28.5-27.9,44.3-13.5c8.9,8.1,17.2,17,25.8,25.5c29.8,29.8,59.6,59.6,89.4,89.5
	c3.2,3.2,5.3,5.9,11,2.6c45.6-26,91.3-25.6,136.8,0.4c1,0.6,2.1,1.1,3.1,1.6c0.1,0,0.2,0.1,0.3,0.1c1.9,0.2,3.7-0.7,4.8-2.3
	c0.9-1.4,1.9-2.8,3.1-4c37-37.2,74.1-74.3,111.2-111.4c7.8-7.9,16.8-11.7,28-8.4c10,2.9,16.1,9.6,18.5,19.5
	c2.7,11.2-2.2,19.9-9.9,27.7c-36.8,36.6-73.5,73.3-110.1,110c-1.2,1.2-2.6,2.3-4,3.2C591.4,322.4,590.8,325.2,592,327.5z M559,398.1
	c0-43.6-35.6-79.4-79.2-79.5c-44.1-0.1-79.9,35.6-80,79.6c0,0,0,0,0,0c0,43.6,35.7,79.4,79.2,79.5C523.1,477.8,559,442.2,559,398.1
	C559.1,398.1,559.1,398.1,559,398.1L559,398.1z"/>
<path class="st0" d="M744.9,397.8c0-17.1-0.1-34.1,0-51.2c0.1-16.3,11.4-28.1,26.6-28.1s26.4,11.8,26.4,28.2
	c0.1,34.1,0.1,68.3,0,102.4c0,16.5-11,28.3-26.1,28.5c-15.5,0.2-26.8-11.8-26.9-28.7C744.8,432,744.9,414.9,744.9,397.8z"/>
</svg>
